HIERARCHY
ROOT pelvis
{
	OFFSET 0.000000 0.000000 0.000000
	CHANNELS 6 Xposition Yposition Zposition Zrotation Xrotation Yrotation
	JOINT lfemur
	{
		OFFSET 11.446000 0.000000 0.000000
		CHANNELS 3 Zrotation Xrotation Yrotation
		JOINT ltibia
		{
			OFFSET 0.000000 -42.030400 0.000000
			CHANNELS 3 Zrotation Xrotation Yrotation
			JOINT lfoot
			{
				OFFSET 0.000000 -39.930200 0.000000
				CHANNELS 3 Zrotation Xrotation Yrotation
				JOINT ltoes
				{
					OFFSET 0.000000 0.000000 11.775800
					CHANNELS 3 Zrotation Xrotation Yrotation
					End Site
					{
					    OFFSET 0.000000 0.000000 5.000000
					}
				}
			}
		}
	}
	JOINT rfemur
	{
		OFFSET -11.446000 0.000000 0.000000
		CHANNELS 3 Zrotation Xrotation Yrotation
		JOINT rtibia
		{
			OFFSET 0.000000 -42.030400 0.000000
			CHANNELS 3 Zrotation Xrotation Yrotation
			JOINT rfoot
			{
				OFFSET 0.000000 -39.930200 0.000000
				CHANNELS 3 Zrotation Xrotation Yrotation
				JOINT rtoes
				{
					OFFSET 0.000000 0.000000 11.775800
					CHANNELS 3 Zrotation Xrotation Yrotation
					End Site
					{
					    OFFSET 0.000000 0.000000 5.000000
					}
				}
			}
		}
	}
	JOINT thorax
	{
		OFFSET 0.000000 11.255600 -5.000000
		CHANNELS 3 Zrotation Xrotation Yrotation
		JOINT head
		{
			OFFSET 0.000000 43.799300 0.000000
			CHANNELS 3 Zrotation Xrotation Yrotation
			End Site
			{
			    OFFSET 0.000000 5.000000 0.000000
			}
		}
		JOINT lclavicle
		{
			OFFSET 0.000000 39.863000 0.000000
			CHANNELS 3 Zrotation Xrotation Yrotation
			JOINT lhumerus
			{
				OFFSET 17.380600 4.958300 0.000000
				CHANNELS 3 Zrotation Xrotation Yrotation
				JOINT lradius
				{
					OFFSET 0.000000 -27.561300 0.000000
					CHANNELS 3 Zrotation Xrotation Yrotation
					JOINT lhand
					{
						OFFSET 0.000000 -26.933000 0.000000
						CHANNELS 3 Zrotation Xrotation Yrotation
						End Site
						{
						    OFFSET 0.000000 -5.000000 0.000000
						}
					}
				}
			}
		}
		JOINT rclavicle
		{
			OFFSET 0.000000 39.863000 0.000000
			CHANNELS 3 Zrotation Xrotation Yrotation
			JOINT rhumerus
			{
				OFFSET -17.380600 4.958300 0.000000
				CHANNELS 3 Zrotation Xrotation Yrotation
				JOINT rradius
				{
					OFFSET 0.000000 -27.561300 0.000000
					CHANNELS 3 Zrotation Xrotation Yrotation
					JOINT rhand
					{
						OFFSET 0.000000 -26.933000 0.000000
						CHANNELS 3 Zrotation Xrotation Yrotation
						End Site
						{
						    OFFSET 0.000000 -5.000000 0.000000
						}
					}
				}
			}
		}
	}
}
MOTION
Frames:	16
Frame Time:	0.0333333
-217.667 88.558 8.76853 5.11043 3.75641 165.209 2.11176 -1.80489 -9.62686 1.40058 27.2556 -13.0824 5.62866 -5.13657 0.445701 2.78262e-016 -5 3.1927e-015 2.45624 -12.1303 10.1739 -1.86718 23.4284 9.43307 9.70962 3.54932 -0.258871 6.60964e-016 -5 -3.99088e-016 -5.12881 6.20759 -1.61473 16.0615 13.7631 -45.9737 2.98177e-015 7.95139e-016 3.18055e-015 21.3765 -11.791 63.4314 3.55156 -0.0785757 -106.902 19.9544 -21.35 -4.26148 2.98177e-015 7.95139e-016 3.18055e-015 -13.7113 -4.33048 -25.325 14.4559 -6.18842 53.2831 -2.65271 -2.70103 9.74821 
-218.932 88.6855 9.35956 5.19961 2.80755 159.25 1.27876 -0.948952 -5.15482 2.24186 24.7808 -11.207 5.69724 -4.93687 0.438393 -1.27237e-015 -5 1.27708e-014 2.88326 -11.671 6.60509 -1.25937 24.1817 1.50413 7.98669 2.21267 -0.168638 1.59028e-015 -5 -0 -4.08998 5.00659 -1.14024 14.0511 13.5714 -44.5285 -2.5842e-015 -3.97569e-016 3.18055e-015 20.4927 -9.68142 63.2507 2.27239 -0.00379254 -106.719 10.667 -9.51287 -8.64004 -2.5842e-015 -3.97569e-016 3.18055e-015 -15.2916 -5.13101 -25.2429 14.6676 -4.80172 55.3622 -2.39929 -2.27245 9.77455 
-220.092 88.7711 9.89445 5.12552 1.97882 153.703 0.450701 -0.337326 -1.95469 2.39907 22.6059 -8.33519 6.3827 -4.58699 0.459871 -5.16876e-016 -5 3.1927e-015 3.121 -11.2423 2.95162 -0.841665 25.8944 -5.4852 5.08829 0.841851 -0.123122 2.38614e-016 -5 -6.38541e-015 -3.51195 4.14423 -0.982878 12.5149 12.8343 -42.8766 -1.59028e-015 3.97569e-016 -6.36111e-015 20.2968 -7.5621 64.1534 1.78327 -0.0957359 -105.311 6.6412 -8.34676 -9.1474 -1.59028e-015 3.97569e-016 -6.36111e-015 -15.6515 -5.47129 -24.1711 14.6721 -4.88854 56.5619 -2.20675 -2.06129 9.79065 
-221.118 88.7923 10.3721 4.93278 1.38076 148.283 -0.41303 -0.137865 -0.194709 2.13389 21.3772 -4.54484 6.41384 -4.2384 0.436899 3.69743e-015 -5 -3.1927e-015 2.43791 -10.8062 -3.01772 -0.680245 28.3775 -7.98037 1.93203 -0.789753 -0.13292 2.38542e-015 -5 -0 -3.16666 4.20141 -0.756195 10.4792 11.2528 -41.2796 -3.97569e-016 7.95139e-016 -9.54166e-015 20.1311 -6.42421 65.5534 1.92264 -0.0963415 -105.826 7.09153 -8.27942 -9.08967 -3.97569e-016 7.95139e-016 -9.54166e-015 -16.4265 -6.94259 -23.2818 14.9097 -4.50079 56.8025 -2.57174 -2.56695 9.75712 
-222.098 88.8036 10.8469 4.87852 0.987067 142.972 -1.49786 -0.0152885 0.110192 1.97466 20.5718 0.762166 6.71967 -3.92635 0.427761 -1.62993e-015 -5 -9.57811e-015 2.3051 -10.0088 -5.33818 -0.914891 30.6222 -11.2825 0.855007 -1.79205 -0.155009 -1.03375e-015 -5 6.38541e-015 -3.00041 4.3209 -0.626683 9.54702 9.87953 -38.0882 -3.97569e-016 -3.97569e-016 -3.18055e-015 19.7725 -5.52739 67.1439 3.20605 -0.0411744 -108.199 7.89355 -7.70316 -9.03464 -3.97569e-016 -3.97569e-016 -3.18055e-015 -16.7241 -8.30718 -22.0163 14.9568 -5.08143 55.7293 -1.54748 -2.67384 9.82643 
-222.97 88.8438 11.3109 4.96718 0.442679 137.584 -2.14217 0.0837409 0.620564 1.79808 19.6817 5.89093 6.5592 -3.66317 0.395991 -1.59028e-015 -5 -0 2.32152 -8.81127 -6.15465 -1.00743 31.5804 -13.5613 -0.655656 -2.51745 -0.212123 2.90229e-015 -5 -3.1927e-015 -2.39328 4.18289 -0.455288 7.65784 8.32819 -34.1892 -1.19271e-015 -1.98785e-015 9.54166e-015 18.9134 -4.75352 68.6519 4.77868 0.0302019 -110.575 7.62004 -8.1763 -9.03578 -1.19271e-015 -1.98785e-015 9.54166e-015 -17.0044 -9.32363 -20.9827 14.9403 -5.56254 55.1142 -1.34054 -3.20346 9.83422 
-223.661 88.9268 11.7428 4.90257 -0.170962 132.73 -2.50691 0.0011942 1.012 1.5285 18.8117 10.3202 6.40231 -3.2525 0.357096 -2.94194e-015 -5 -6.38541e-015 2.26156 -7.06834 -6.36048 -1.0487 30.6831 -14.618 -2.42422 -2.98991 -0.294987 -1.31201e-015 -5 3.1927e-015 -2.14278 3.57073 -0.390342 6.55717 8.15008 -32.2753 -1.19271e-015 7.95139e-016 -3.18055e-015 18.139 -4.00829 69.2652 5.68778 -0.0678645 -110.739 7.53825 -7.60333 -9.08316 -1.19271e-015 7.95139e-016 -3.18055e-015 -16.8947 -9.78213 -19.0911 15.0472 -6.22902 54.3948 -1.85528 -3.14433 9.79689 
-224.263 89.1057 12.2164 4.52692 -0.816435 127.993 -2.87654 0.0144097 1.13621 1.29002 17.2453 14.7897 6.3136 -2.42496 0.298605 -2.66368e-015 -5 -3.1927e-015 2.11865 -5.67842 -5.97374 -0.999021 29.3153 -14.7096 -3.79582 -2.77793 -0.350711 -2.76316e-015 -5 4.78906e-015 -2.28277 2.88461 -0.449357 6.57318 8.67075 -29.0221 3.53113e-031 -1.59028e-015 1.27222e-014 18.0416 -3.76007 70.6291 6.84749 0.0301149 -113.209 7.59064 -7.23275 -9.10012 3.53113e-031 -1.59028e-015 1.27222e-014 -16.3675 -10.3437 -17.3036 15.114 -6.9391 53.2693 -1.25693 -2.72619 9.84567 
-224.702 89.236 12.8235 4.20031 -1.64077 123.729 -2.68181 -0.308484 1.53446 1.06011 16.2116 18.5999 6.05082 -1.98156 0.257672 2.90229e-015 -5 -3.1927e-015 2.62328 -4.20562 -4.07695 -0.819319 26.8638 -14.7834 -3.44195 -1.32772 -0.283981 2.90229e-015 -5 -3.1927e-015 -2.50725 2.06398 -0.488692 6.73746 9.04056 -25.9721 -7.95139e-016 -3.97569e-016 -0 18.1967 -3.11357 70.3994 6.73892 -0.0608989 -113.724 7.70863 -7.05889 -9.10112 -7.95139e-016 -3.97569e-016 -0 -15.5403 -10.2272 -16.0724 15.0518 -7.60119 52.5054 -0.849164 -2.5879 9.87523 
-225.141 89.3759 13.4643 3.77529 -2.31177 120.204 -2.48054 -0.839931 1.76032 0.959103 15.547 21.809 5.79197 -1.5227 0.218139 1.31201e-015 -5 -3.1927e-015 2.92551 -2.75184 -2.28537 -0.619296 24.0204 -14.1871 -0.994082 1.72001 -0.188881 -1.39131e-016 -5 -1.59635e-015 -2.42771 1.57921 -0.698609 6.79701 9.06493 -23.8317 -4.41391e-032 -3.97569e-016 -6.36111e-015 18.1021 -3.26637 69.4097 6.15473 -0.120376 -113.43 7.71299 -6.94224 -9.10639 -4.41391e-032 -3.97569e-016 -6.36111e-015 -15.2719 -10.1915 -16.4366 15.082 -7.42088 52.5533 -0.838531 -2.52239 9.87609 
-225.617 89.3689 14.0695 3.28561 -2.3952 117.057 -2.70335 -1.47707 1.80757 0.825211 15.5266 24.8062 5.47558 -1.31836 0.193765 -2.62403e-015 -5 6.38541e-015 2.47125 -1.05902 -1.66132 -0.38564 20.0325 -12.4033 4.98305 3.0543 -0.201441 -2.78262e-016 -5 -3.1927e-015 -3.04021 1.44926 -0.729318 7.07357 8.78741 -21.879 7.95139e-016 -7.95139e-016 -6.36111e-015 18.3404 -3.99626 68.2122 5.46069 -0.127195 -112.79 7.33482 -7.5696 -9.10857 7.95139e-016 -7.95139e-016 -6.36111e-015 -14.819 -9.86142 -17.1156 15.0209 -7.31706 52.7525 -1.07068 -2.40334 9.8615 
-226.089 89.2232 14.6285 2.83774 -2.23291 114.061 -2.96577 -2.64966 1.94438 0.528832 16.8795 27.615 5.00531 -1.6571 0.189679 1.35166e-015 -5 6.38541e-015 1.59127 0.381712 -2.06724 0.0959333 15.4341 -8.97009 5.63316 3.0517 -0.221984 4.17448e-015 -5 -0 -2.99648 1.99227 -0.660467 6.19587 7.98795 -20.272 -7.95139e-016 7.95139e-016 9.54166e-015 18.2836 -5.86098 67.7479 4.97239 -0.0872094 -112.511 7.26031 -7.7906 -9.10227 -7.95139e-016 7.95139e-016 9.54166e-015 -15.2635 -9.68098 -17.7956 14.9022 -7.22283 54.0012 -1.12608 -2.27272 9.85849 
-226.533 88.8762 15.278 2.67714 -2.26799 111.484 -2.35162 -4.80184 3.62909 -0.0173471 20.5455 28.5351 3.88825 -3.19858 0.202009 -1.59028e-015 -5 -0 1.41672 0.959456 -2.01678 0.277121 12.754 -6.19772 5.48084 2.47737 -0.203409 9.95725e-018 -5 -1.59635e-015 -2.42702 2.63341 -0.412945 5.28383 7.30798 -18.981 7.95139e-016 -2.38542e-015 -3.18055e-015 17.944 -7.43732 66.2683 3.8401 -0.0903603 -111.102 7.6509 -7.55045 -9.07178 7.95139e-016 -2.38542e-015 -3.18055e-015 -15.7885 -9.42289 -20.1287 14.7299 -6.36304 56.5156 -1.38396 -2.55416 9.83834 
-227.205 88.4593 16.0527 2.78747 -2.88859 110.889 -0.743637 -8.19022 6.60057 0.658604 26.2344 24.7214 2.59324 -4.77546 0.177816 2.42506e-015 -5 9.57811e-015 2.17284 -0.113048 -1.98618 0.6546 13.4624 -6.20309 4.26755 1.89443 -0.179745 -7.75314e-016 -5 4.78906e-015 -1.40452 4.51471 -0.835371 5.11789 5.22418 -17.8784 -7.95139e-016 7.95139e-016 3.18055e-015 18.6679 -10.699 64.6842 2.64002 -0.00363222 -108.87 7.49838 -7.52218 -9.09195 -7.95139e-016 7.95139e-016 3.18055e-015 -15.8658 -9.57579 -19.9443 14.666 -7.04502 54.9903 -1.5615 -2.57434 9.82602 
-227.829 88.1598 16.6417 3.17507 -3.67992 109.782 1.32736 -11.5847 7.82787 1.39041 32.5912 19.8807 1.7863 -5.11086 0.129268 2.42506e-015 -5 9.57811e-015 2.88261 -1.11153 -1.88621 1.1189 14.3841 -5.11054 3.87667 1.84023 -0.178488 2.58438e-016 -5 -1.59635e-015 0.319637 6.14658 -1.0556 4.37949 3.46947 -16.9774 7.95139e-016 3.97569e-016 -3.18055e-015 18.2868 -13.2005 64.0283 2.08254 -0.0477124 -106.83 7.79118 -8.20921 -9.01193 7.95139e-016 3.97569e-016 -3.18055e-015 -16.9917 -9.97854 -21.9634 14.8168 -5.45956 57.7767 -1.56143 -2.31529 9.82865 
-228.401 88.0273 16.9853 3.23321 -3.99532 108.936 2.63825 -14.3888 6.00616 1.16844 37.3448 14.9805 2.6005 -4.25901 0.158287 -2.66368e-015 -5 -3.1927e-015 2.7081 -2.54712 -2.45574 1.79829 16.2659 -3.63724 4.29582 1.62022 -0.167128 -3.56817e-015 -5 -1.59635e-015 0.642932 6.74931 -1.16081 4.95603 2.87185 -16.1776 1.59028e-015 0 6.36111e-015 17.9435 -14.9349 63.1406 1.87951 -0.0938571 -104.091 8.00156 -8.53065 -8.96197 1.59028e-015 0 6.36111e-015 -17.0511 -9.98177 -26.1932 14.4011 -3.23062 61.0799 -1.23339 -1.35793 9.86195 
